<svg xmlns="http://www.w3.org/2000/svg" xmlns:xlink="http://www.w3.org/1999/xlink" version="1.1" width="670" enable-background="new 0 0 670 670" xml:space="preserve" height="670" style=""><rect id="backgroundrect" width="100%" height="100%" x="0" y="0" fill="none" stroke="none"/>








<g class="currentLayer" style=""><title>Layer 1</title><path fill="#4F46E5" opacity="1.000000" stroke="none" d=" M446.000000,671.000000   C297.333344,671.000000 149.166672,671.000000 1.000000,671.000000   C1.000000,447.666656 1.000000,224.333328 1.000000,1.000000   C224.333328,1.000000 447.666656,1.000000 671.000000,1.000000   C671.000000,224.333328 671.000000,447.666656 671.000000,671.000000   C596.166687,671.000000 521.333313,671.000000 446.000000,671.000000  M403.804321,269.502014   C403.847778,269.675537 403.891235,269.849060 403.796448,270.751465   C404.822876,271.728485 405.709625,272.941986 406.898376,273.644226   C414.781067,278.301056 422.725922,282.852875 430.655884,287.429596   C436.201019,290.629913 441.754639,293.815552 447.659515,297.211945   C447.659515,260.313263 447.659515,224.302734 447.659515,187.284714   C432.722778,196.149918 418.478424,204.604156 403.906097,213.484131   C403.917694,213.662888 403.929291,213.841660 403.723633,214.933456   C403.790619,232.948654 403.857635,250.963837 403.804321,269.502014  M274.436218,496.107025   C274.647156,495.728180 274.858063,495.349304 275.310425,494.063812   C275.337006,479.470978 275.411774,464.878021 275.376526,450.285339   C275.341675,435.866516 275.195618,421.447968 275.214783,406.497528   C275.171814,406.321228 275.128845,406.144958 275.402100,405.378143   C276.682892,404.369781 277.863922,403.189636 279.259583,402.379059   C297.696350,391.671448 316.222809,381.116394 334.572357,370.262024   C338.225464,368.101135 340.929535,368.174957 344.543182,370.312347   C362.750092,381.081268 381.068390,391.665710 399.480042,402.080750   C402.698639,403.901459 403.752625,405.910645 403.732910,409.526184   C403.583862,436.858307 403.698822,464.191803 403.588104,491.524292   C403.575836,494.556122 404.388580,496.406158 407.157776,497.834045   C411.889954,500.274078 416.412720,503.119263 421.032410,505.778687   C429.772095,510.809937 438.518188,515.830078 447.712616,521.114014   C447.851349,519.555298 447.982910,518.765564 447.983154,517.975830   C447.996277,472.809875 448.036194,427.643799 447.863312,382.478516   C447.856415,380.681824 446.254547,378.141998 444.659088,377.210907   C410.850555,357.480469 376.917206,337.964172 343.078827,318.284576   C340.387634,316.719452 338.450836,316.827026 335.833771,318.372131   C321.921234,326.585632 307.899658,334.614685 293.901093,342.682037   C288.079407,346.037018 282.221161,349.328552 275.895996,352.923828   C275.895996,323.061035 275.895996,294.107635 275.895996,264.494415   C352.485687,308.704041 428.407928,352.528412 504.930298,396.699188   C504.930298,315.576813 504.930298,235.502686 504.930298,155.006363   C503.834381,155.418152 503.046478,155.598740 502.375549,155.983368   C489.513824,163.356598 476.718811,170.848633 463.775848,178.075806   C460.741852,179.769943 460.917419,182.164520 460.917938,184.832764   C460.926361,227.665329 460.922180,270.497894 460.920898,313.330475   C460.920868,315.201355 460.920929,317.072205 460.920929,319.991852   C383.738495,275.448822 307.712433,231.573135 231.455414,187.564178   C231.455414,299.178467 231.455414,409.845917 231.455414,521.271423   C246.007797,512.671997 259.886414,504.470734 274.436218,496.107025  M218.106033,212.500015   C218.106216,203.171051 217.943420,193.837769 218.191010,184.515381   C218.283249,181.042526 217.096786,179.057877 214.134125,177.392380   C202.813751,171.028427 191.612518,164.452759 180.351608,157.982590   C178.427383,156.877014 176.428925,155.900681 174.338516,154.798050   C174.338516,235.673203 174.338516,315.795258 174.338516,396.576660   C187.813446,388.793579 200.540726,381.251221 213.480576,374.093140   C217.027069,372.131317 218.207199,369.922974 218.196503,365.927094   C218.060455,315.118347 218.106415,264.309143 218.106033,212.500015  z" id="svg_1"/><path fill="#ffffff" opacity="1.000000" stroke="none" d=" M275.098328,407.029297   C275.195618,421.447968 275.341675,435.866516 275.376526,450.285339   C275.411774,464.878021 275.337006,479.470978 274.977051,494.735718   C274.350800,495.694946 274.057922,495.982208 273.765045,496.269470   C259.886414,504.470734 246.007797,512.671997 231.455414,521.271423   C231.455414,409.845917 231.455414,299.178467 231.455414,187.564178   C307.712433,231.573135 383.738495,275.448822 460.920929,319.991852   C460.920929,317.072205 460.920868,315.201355 460.920898,313.330475   C460.922180,270.497894 460.926361,227.665329 460.917938,184.832764   C460.917419,182.164520 460.741852,179.769943 463.775848,178.075806   C476.718811,170.848633 489.513824,163.356598 502.375549,155.983368   C503.046478,155.598740 503.834381,155.418152 504.930298,155.006363   C504.930298,235.502686 504.930298,315.576813 504.930298,396.699188   C428.407928,352.528412 352.485687,308.704041 275.895996,264.494415   C275.895996,294.107635 275.895996,323.061035 275.895996,352.923828   C282.221161,349.328552 288.079407,346.037018 293.901093,342.682037   C307.899658,334.614685 321.921234,326.585632 335.833771,318.372131   C338.450836,316.827026 340.387634,316.719452 343.078827,318.284576   C376.917206,337.964172 410.850555,357.480469 444.659088,377.210907   C446.254547,378.141998 447.856415,380.681824 447.863312,382.478516   C448.036194,427.643799 447.996277,472.809875 447.983154,517.975830   C447.982910,518.765564 447.851349,519.555298 447.712616,521.114014   C438.518188,515.830078 429.772095,510.809937 421.032410,505.778687   C416.412720,503.119263 411.889954,500.274078 407.157776,497.834045   C404.388580,496.406158 403.575836,494.556122 403.588104,491.524292   C403.698822,464.191803 403.583862,436.858307 403.732910,409.526184   C403.752625,405.910645 402.698639,403.901459 399.480042,402.080750   C381.068390,391.665710 362.750092,381.081268 344.543182,370.312347   C340.929535,368.174957 338.225464,368.101135 334.572357,370.262024   C316.222809,381.116394 297.696350,391.671448 279.259583,402.379059   C277.863922,403.189636 276.682892,404.369781 275.208344,405.805328   C274.962585,406.503387 274.990509,406.768982 275.098328,407.029297  z" id="svg_2" class="" fill-opacity="1"/><path fill="#ffffff" opacity="1.000000" stroke="none" d=" M218.106049,213.000031   C218.106415,264.309143 218.060455,315.118347 218.196503,365.927094   C218.207199,369.922974 217.027069,372.131317 213.480576,374.093140   C200.540726,381.251221 187.813446,388.793579 174.338516,396.576660   C174.338516,315.795258 174.338516,235.673203 174.338516,154.798050   C176.428925,155.900681 178.427383,156.877014 180.351608,157.982590   C191.612518,164.452759 202.813751,171.028427 214.134125,177.392380   C217.096786,179.057877 218.283249,181.042526 218.191010,184.515381   C217.943420,193.837769 218.106216,203.171051 218.106049,213.000031  z" id="svg_3" class="selected" fill-opacity="1"/><path fill="#ffffff" opacity="1.000000" stroke="none" d=" M404.234070,213.058411   C418.478424,204.604156 432.722778,196.149918 447.659515,187.284714   C447.659515,224.302734 447.659515,260.313263 447.659515,297.211945   C441.754639,293.815552 436.201019,290.629913 430.655884,287.429596   C422.725922,282.852875 414.781067,278.301056 406.898376,273.644226   C405.709625,272.941986 404.822876,271.728485 403.903503,270.257446   C404.065979,269.496338 404.037323,269.234863 403.924622,268.979034   C403.857635,250.963837 403.790619,232.948654 403.894562,214.364410   C404.186310,213.566879 404.242493,213.321228 404.234070,213.058411  z" id="svg_4" class="" fill-opacity="1"/><path fill="#F7F6FE" opacity="1.000000" stroke="none" d=" M404.070068,213.271271   C404.242493,213.321228 404.186310,213.566879 404.003204,213.907883   C403.929291,213.841660 403.917694,213.662888 404.070068,213.271271  z" id="svg_5"/><path fill="#F7F6FE" opacity="1.000000" stroke="none" d=" M403.864502,269.240540   C404.037323,269.234863 404.065979,269.496338 403.972656,269.893005   C403.891235,269.849060 403.847778,269.675537 403.864502,269.240540  z" id="svg_6"/><path fill="#F7F6FE" opacity="1.000000" stroke="none" d=" M275.156555,406.763428   C274.990509,406.768982 274.962585,406.503387 275.050232,406.100586   C275.128845,406.144958 275.171814,406.321228 275.156555,406.763428  z" id="svg_7"/><path fill="#F7F6FE" opacity="1.000000" stroke="none" d=" M274.100647,496.188232   C274.057922,495.982208 274.350800,495.694946 274.856323,495.189056   C274.858063,495.349304 274.647156,495.728180 274.100647,496.188232  z" id="svg_8"/></g></svg>